<svg xmlns="http://www.w3.org/2000/svg" viewBox="0 0 323.01 323.01"><defs><style>.cls-1{fill:#242323;}.cls-2,.cls-6{fill:#1d1d1b;}.cls-2,.cls-5{opacity:0.1;}.cls-3{fill:#e51a1a;}.cls-4{fill:#e56565;}.cls-7{fill:#750505;}.cls-8{fill:#912929;}.cls-9{fill:#dda77b;}.cls-10{fill:#a38066;opacity:0.5;}.cls-11{fill:#603d27;}.cls-12{font-size:12.46px;}.cls-12,.cls-13{font-family:Garamond-Bold, Garamond;font-weight:700;}.cls-13{font-size:32px;fill:#efefea;}</style></defs><g id="Layer_2" data-name="Layer 2"><g id="color_schemes" data-name="color schemes"><circle class="cls-1" cx="161.5" cy="161.5" r="161.5"/><path class="cls-2" d="M306.44,175.75a128.18,128.18,0,1,1-2.79-26.68,126.92,126.92,0,0,1,2.44,17.12C306.32,169.35,306.44,172.53,306.44,175.75Z"/><path class="cls-3" d="M289.76,161.51A128.18,128.18,0,1,1,287,134.83,126.92,126.92,0,0,1,289.41,152C289.64,155.11,289.76,158.29,289.76,161.51Z"/><path class="cls-4" d="M40.66,167A128,128,0,0,0,88.9,267.24a128.26,128.26,0,1,1,152.58-206A128.28,128.28,0,0,0,40.66,167Z"/><g class="cls-5"><path class="cls-6" d="M262.71,158.33a94.28,94.28,0,1,1-4.37-16.72l-1.16.28V142l.48,2,3.52,14.74Z"/><path class="cls-6" d="M259,143.62a93.62,93.62,0,0,1,3.67,14.71l-1.52.36L257.67,144Z"/><path class="cls-6" d="M262.71,158.33A93.62,93.62,0,0,0,259,143.62l-1.37.33-.48-2L287,134.83A126.92,126.92,0,0,1,289.41,152Z"/></g><path class="cls-7" d="M255.72,161.51a94.18,94.18,0,1,1-11.87-45.81l-1.1.46.81,2,1.3-.54A93.68,93.68,0,0,1,255.72,161.51Z"/><rect class="cls-7" x="255.26" y="97.47" width="17.22" height="38.54" transform="translate(257.69 405.21) rotate(-112.64)"/><path class="cls-8" d="M241.78,112A94.23,94.23,0,0,0,84.31,215.34,94.23,94.23,0,1,1,241.78,112Z"/><path class="cls-8" d="M279.14,103.28l-34.28,14.29c-.32-.63-.66-1.25-1-1.87l34.47-14.38Z"/><circle class="cls-9" cx="162.67" cy="162.67" r="77.42"/><path class="cls-10" d="M224.13,116A77.42,77.42,0,0,0,109.78,219.51,77.42,77.42,0,1,1,224.13,116Z"/><circle class="cls-11" cx="105.84" cy="162.67" r="3.91"/><circle class="cls-11" cx="179.03" cy="105.23" r="3.91"/><circle class="cls-11" cx="168.28" cy="115.45" r="3.91"/><circle class="cls-11" cx="120.82" cy="127.2" r="3.91"/><circle class="cls-11" cx="122.52" cy="148.46" r="3.91"/><circle class="cls-11" cx="126.44" cy="129.58" r="1.53"/><circle class="cls-11" cx="176.65" cy="113.07" r="1.53"/><path class="cls-11" d="M154.72,103.15c3.21,0,3.22-5,0-5s-3.23,5,0,5Z"/><path class="cls-11" d="M148.06,122.33c3.21,0,3.22-5,0-5s-3.23,5,0,5Z"/><path class="cls-11" d="M212.93,119.53c3.21,0,3.22-5,0-5s-3.23,5,0,5Z"/><path class="cls-11" d="M203.6,109.41c3.22,0,3.22-5,0-5s-3.22,5,0,5Z"/><path class="cls-11" d="M187.08,100.87a.63.63,0,0,0,0-1.25.63.63,0,0,0,0,1.25Z"/><path class="cls-11" d="M173.36,108.47a.63.63,0,0,0,0-1.25.63.63,0,0,0,0,1.25Z"/><path class="cls-11" d="M159.11,98.87a.63.63,0,0,0,0-1.25.63.63,0,0,0,0,1.25Z"/><path class="cls-11" d="M154.18,106.47a.63.63,0,0,0,0-1.25.63.63,0,0,0,0,1.25Z"/><path class="cls-11" d="M147,104.6a.63.63,0,0,0,0-1.25.63.63,0,0,0,0,1.25Z"/><path class="cls-11" d="M146.59,111.26a.63.63,0,0,0,0-1.25.63.63,0,0,0,0,1.25Z"/><path class="cls-11" d="M135,112.77v-.13a.43.43,0,0,0-.05-.25.63.63,0,0,0-.13-.2.53.53,0,0,0-.2-.13.52.52,0,0,0-.24,0l-.17,0a.67.67,0,0,0-.27.16l-.1.13a.59.59,0,0,0-.09.32v.13a.53.53,0,0,0,.06.24.37.37,0,0,0,.13.2.46.46,0,0,0,.2.13.39.39,0,0,0,.24,0l.16,0a.61.61,0,0,0,.28-.16l.1-.13a.65.65,0,0,0,.08-.31Z"/><path class="cls-11" d="M141.26,130.31a.63.63,0,0,0,0-1.25.63.63,0,0,0,0,1.25Z"/><path class="cls-11" d="M135.4,133.51a.63.63,0,0,0,0-1.25.63.63,0,0,0,0,1.25Z"/><path class="cls-11" d="M135.27,139.9a.63.63,0,0,0,0-1.25.63.63,0,0,0,0,1.25Z"/><path class="cls-11" d="M141.4,137a.63.63,0,0,0,0-1.25.63.63,0,0,0,0,1.25Z"/><path class="cls-11" d="M128.21,143.1a.63.63,0,0,0,0-1.25.63.63,0,0,0,0,1.25Z"/><path class="cls-11" d="M124,156.82a.63.63,0,0,0,0-1.25.63.63,0,0,0,0,1.25Z"/><path class="cls-11" d="M112.89,170.8a.63.63,0,0,0,0-1.25.63.63,0,0,0,0,1.25Z"/><path class="cls-11" d="M104.5,178.53a.63.63,0,0,0,0-1.25.63.63,0,0,0,0,1.25Z"/><path class="cls-11" d="M119.69,165.34a.63.63,0,0,0,0-1.25.63.63,0,0,0,0,1.25Z"/><path class="cls-11" d="M112.49,152.69a.63.63,0,0,0,0-1.25.63.63,0,0,0,0,1.25Z"/><path class="cls-11" d="M106.23,170.27a.63.63,0,0,0,0-1.25.63.63,0,0,0,0,1.25Z"/><path class="cls-11" d="M106.1,149a.63.63,0,0,0,0-1.25.63.63,0,0,0,0,1.25Z"/><path class="cls-11" d="M193.88,117.12a.63.63,0,0,0,0-1.25.63.63,0,0,0,0,1.25Z"/><path class="cls-11" d="M182.91,115.3v-.13a.39.39,0,0,0,0-.24.46.46,0,0,0-.13-.21.53.53,0,0,0-.2-.13.6.6,0,0,0-.24,0l-.17,0a.74.74,0,0,0-.27.16l-.1.13a.59.59,0,0,0-.09.32v.13a.48.48,0,0,0,.06.24.44.44,0,0,0,.13.2.66.66,0,0,0,.44.18l.17,0a.63.63,0,0,0,.27-.16l.1-.13a.55.55,0,0,0,.08-.31Z"/><path class="cls-11" d="M208.13,109.4a.63.63,0,0,0,0-1.25.63.63,0,0,0,0,1.25Z"/><path class="cls-11" d="M201.2,115.26a.63.63,0,0,0,0-1.25.63.63,0,0,0,0,1.25Z"/><path class="cls-11" d="M193.48,104.6a.63.63,0,0,0,0-1.25.63.63,0,0,0,0,1.25Z"/><path class="cls-11" d="M225.71,127.91a.63.63,0,0,0,0-1.25.63.63,0,0,0,0,1.25Z"/><path class="cls-11" d="M221.85,122.58a.63.63,0,0,0,0-1.25.63.63,0,0,0,0,1.25Z"/><path class="cls-11" d="M217.72,115.52a.63.63,0,0,0,0-1.25.63.63,0,0,0,0,1.25Z"/><path class="cls-11" d="M157.91,122.85a.63.63,0,0,0,0-1.25.63.63,0,0,0,0,1.25Z"/><path class="cls-11" d="M111.56,136.57a.63.63,0,0,0,0-1.25.63.63,0,0,0,0,1.25Z"/><path class="cls-11" d="M97.84,168.41a.63.63,0,0,0,0-1.25.63.63,0,0,0,0,1.25Z"/><path class="cls-11" d="M100.24,175.92a1.88,1.88,0,0,0,0-3.75,1.88,1.88,0,0,0,0,3.75Z"/><path class="cls-11" d="M110.63,144.61a1.88,1.88,0,0,0,0-3.75,1.88,1.88,0,0,0,0,3.75Z"/><path class="cls-11" d="M138.73,135a1.88,1.88,0,0,0,0-3.75,1.88,1.88,0,0,0,0,3.75Z"/><path class="cls-11" d="M166,103.45a1.88,1.88,0,0,0,0-3.75,1.88,1.88,0,0,0,0,3.75Z"/><path class="cls-11" d="M125.55,117.47a1.38,1.38,0,0,0,0-2.75,1.38,1.38,0,0,0,0,2.75Z"/><path class="cls-11" d="M110.09,148.51a1.38,1.38,0,0,0,0-2.75,1.38,1.38,0,0,0,0,2.75Z"/><path class="cls-11" d="M126.35,154.9a1.38,1.38,0,0,0,0-2.75,1.38,1.38,0,0,0,0,2.75Z"/><path class="cls-11" d="M110.49,168.36a1.38,1.38,0,0,0,0-2.75,1.38,1.38,0,0,0,0,2.75Z"/><path class="cls-11" d="M206.13,112.28a1.38,1.38,0,0,0,0-2.75,1.38,1.38,0,0,0,0,2.75Z"/><path class="cls-11" d="M161.91,113.34a1.38,1.38,0,0,0,0-2.75,1.38,1.38,0,0,0,0,2.75Z"/><path class="cls-11" d="M158.18,116.54a1.38,1.38,0,0,0,0-2.75,1.38,1.38,0,0,0,0,2.75Z"/><path class="cls-11" d="M118,137.05a1.38,1.38,0,0,0,0-2.75,1.38,1.38,0,0,0,0,2.75Z"/><path class="cls-11" d="M121.55,139.05a1.38,1.38,0,0,0,0-2.75,1.38,1.38,0,0,0,0,2.75Z"/><path class="cls-11" d="M142.61,108.15a1.38,1.38,0,0,0,0-2.75,1.38,1.38,0,0,0,0,2.75Z"/><path class="cls-11" d="M138.18,107.8a1.38,1.38,0,0,0,0-2.75,1.38,1.38,0,0,0,0,2.75Z"/><path class="cls-11" d="M137.84,118.36a1.38,1.38,0,0,0,0-2.75,1.38,1.38,0,0,0,0,2.75Z"/><path class="cls-11" d="M123.55,166c8.85-11.81,3.91-11.92,12.25-20.76,8.62-9.15,27.33-22.55,38.81-25.86,13.41-3.87,16.65-2.77,27.91-.35,14.44,3.1,16.8,7.53,21.61,16,6.15,10.83,10.17,28.81,9.37,38.8-1.49,18.9-21.45,36.82-29.61,42.9-6.79,5.05-36.24,22.29-68.77,8.51-20.17-8.54-36.32-29.83-32-40.51C105.68,178.39,115.58,176.64,123.55,166Z"/><circle class="cls-11" cx="131.89" cy="123.28" r="3.91"/><text class="cls-12" transform="translate(50.55 218.33) rotate(59.66)">J</text><text class="cls-12" transform="matrix(0.54, 0.84, -0.84, 0.54, 52.78, 222.18)">o</text><text class="cls-12" transform="translate(56.45 227.86) rotate(53.93)">b</text><text class="cls-12" transform="translate(60.66 233.58) rotate(51.5)"> </text><text class="cls-12" transform="translate(62.71 236.23) rotate(48.84)">L</text><text class="cls-12" transform="translate(68.14 242.38) rotate(45.49)">a</text><text class="cls-12" transform="translate(72.55 246.96) rotate(41.5)">m</text><text class="cls-12" transform="translate(80.75 254.11) rotate(37.29)">p</text><text class="cls-12" transform="matrix(0.83, 0.56, -0.56, 0.83, 86.45, 258.43)">e</text><text class="cls-13" transform="translate(211.97 36.66) rotate(26.53)">C</text><text class="cls-13" transform="matrix(0.84, 0.54, -0.54, 0.84, 230.71, 46.38)">l</text><text class="cls-13" transform="matrix(0.81, 0.59, -0.59, 0.81, 237.49, 50.7)">i</text><text class="cls-13" transform="matrix(0.75, 0.66, -0.66, 0.75, 244.48, 55.64)">c</text><text class="cls-13" transform="translate(255.42 65.05) rotate(47.57)">k</text><text class="cls-13" transform="matrix(0.61, 0.79, -0.79, 0.61, 266.44, 77.37)"> </text><text class="cls-13" transform="matrix(0.5, 0.86, -0.86, 0.5, 271.45, 82.9)">m</text><text class="cls-13" transform="translate(284.31 105.76) rotate(68.39)">e</text><text class="cls-13" transform="matrix(0.29, 0.96, -0.96, 0.29, 289.56, 119.34)">!</text></g></g></svg>