<svg xmlns="http://www.w3.org/2000/svg" viewBox="0 0 39.53 30.93"><defs><style>.cls-1{fill:#e51a1a;}</style></defs><g id="Layer_2" data-name="Layer 2"><g id="color_schemes" data-name="color schemes"><path class="cls-1" d="M35.05,0H4.48C2,0,0,1.69,0,3.77V27.16c0,2.08,2,3.77,4.48,3.77H35.05c2.47,0,4.48-1.69,4.48-3.77V3.77C39.53,1.69,37.52,0,35.05,0Zm.65,6L20.51,14.34l-.05,0a1.22,1.22,0,0,1-.24.1l-.15,0-.16,0a1.41,1.41,0,0,1-.29,0l-.16,0a1.4,1.4,0,0,1-.39-.14L3,5.88a1,1,0,0,1-.42-1.52l.71-1A1.42,1.42,0,0,1,5,3l14.58,7.71,14-7.7a1.38,1.38,0,0,1,1.77.37l.72,1A1.08,1.08,0,0,1,35.7,6Z"/></g></g></svg>