<svg xmlns="http://www.w3.org/2000/svg" viewBox="0 0 49.12 39.12"><defs><style>.cls-1{fill:#4dc1b0;}</style></defs><g id="Layer_2" data-name="Layer 2"><g id="color_schemes" data-name="color schemes"><path class="cls-1" d="M.35,19.19,22.71.59a2.85,2.85,0,0,1,3.4,0c.6.51,4,3.31,8,6.59,6.5,5.37,14.57,12,14.57,12s.92.73.19,1.46S46.77,23,46.77,23a1.07,1.07,0,0,1-1.58-.12c-.85-.85-20-16.4-20-16.4a1.51,1.51,0,0,0-1.7,0C22.59,7,3.51,23,3.51,23a.91.91,0,0,1-1.34-.12C1.45,22.1.11,20.28.11,20.28A.83.83,0,0,1,.35,19.19Z"/><path class="cls-1" d="M34.08,7.18l.05-6.1s0-.85.73-.85h6.39a.67.67,0,0,1,.66.73V13.64"/><path class="cls-1" d="M6.91,22.59c.25-.12,17.5-14.46,17.5-14.46L42.06,22.59l-.15,15a1.2,1.2,0,0,1-1.33,1.52H28.25l-.07-10.7-7.53.12,0,10.58H8.34s-1.43.16-1.43-1.56Z"/></g></g></svg>