<svg xmlns="http://www.w3.org/2000/svg" viewBox="0 0 491.74 491.74"><defs><style>.cls-1,.cls-6{fill:#3b485e;}.cls-2,.cls-9{fill:#fae495;}.cls-11,.cls-12,.cls-13,.cls-14,.cls-15,.cls-2,.cls-3,.cls-5,.cls-6,.cls-7,.cls-9{stroke:#1d1d1b;stroke-miterlimit:10;}.cls-2,.cls-3,.cls-7{stroke-width:2px;}.cls-3{fill:#f7f7f1;}.cls-4{fill:#dcc57d;}.cls-5{fill:#e30613;stroke-width:4px;}.cls-7{fill:none;}.cls-10,.cls-11,.cls-12,.cls-16,.cls-8{fill:#1d1d1b;}.cls-8{opacity:0.2;}.cls-10{opacity:0.1;}.cls-11,.cls-13,.cls-14,.cls-15{stroke-width:0.5px;}.cls-12{stroke-width:1.5px;}.cls-13{fill:#009640;}.cls-14{fill:#f59915;}.cls-15{fill:#e73923;}</style></defs><g id="Layer_2" data-name="Layer 2"><g id="Printer"><rect class="cls-1" width="491.74" height="491.74"/><rect class="cls-2" x="138.01" y="127.2" width="219" height="141" rx="13.08"/><rect class="cls-3" x="149.47" y="134.58" width="196.08" height="117.63" rx="6.03"/><path class="cls-2" d="M273.5,298.64h-52a.25.25,0,0,1-.25-.25l3-29.77c0-.14-.14-.14,0-.14l46,.14c.15,0,0-.14,0,0l3.46,29.77A.26.26,0,0,1,273.5,298.64Z"/><rect class="cls-2" x="201.03" y="299.06" width="92.97" height="6.79" rx="2.53"/><polygon class="cls-4" points="270.07 274.95 224.68 274.95 225.24 269.48 269.39 269.62 270.07 274.95"/><line class="cls-5" x1="20.22" y1="305.85" x2="474.81" y2="305.85"/><circle class="cls-6" cx="247.37" cy="282.53" r="5.05"/><rect class="cls-2" x="85.73" y="277.02" width="21.7" height="26.81" rx="4.85"/><path class="cls-7" d="M88.14,277.68S69.67,286.4,85.73,299"/><path class="cls-8" d="M89.83,276.34s-4.4-2.25-3-5.16,3.63-4.65,3.89-6.59-1.79-3.58-.36-6,5.3-5.67,5.3-5.67,5.07,5.52,5,6.7-.51,6.34,2.3,7.82,3.13,2.2,3.58,3.83-3.68,5.47-3.68,5.47"/><path class="cls-9" d="M410,301.38c0,1.15-.94,1.92-2.55,2.43a14.94,14.94,0,0,1-2.3.51,95,95,0,0,1-12.74.53c-9.72,0-17.6-.13-17.6-3.47a2,2,0,0,1,.09-.61h0c.9-3.06,8.4-5.44,17.51-5.44C402.15,295.32,410,298,410,301.38Z"/><path class="cls-10" d="M407.48,303.81l-2.3.51a95,95,0,0,1-12.74.53c-9.72,0-17.6-.13-17.6-3.47a2,2,0,0,1,.09-.61h0l10.56,1.68a7,7,0,0,0,.91.09l9.77.72Z"/><path class="cls-11" d="M389.61,295.36c2.71-.92,3.32-.82,3.32-.82a4.92,4.92,0,0,1,3.17,1.07"/><line class="cls-12" x1="149.47" y1="142.89" x2="345.55" y2="142.89"/><circle class="cls-13" cx="321.67" cy="139.04" r="2.51"/><circle class="cls-14" cx="329.75" cy="139.04" r="2.51"/><circle class="cls-15" cx="337.67" cy="139.04" r="2.51"/><path class="cls-16" d="M181.14,181.45h7.13c5.58,0,9.35,1.88,9.35,7.34,0,5.25-3.75,7.71-9.2,7.71h-4.1v9.89h-3.18ZM188,193.92c4.36,0,6.44-1.58,6.44-5.13s-2.21-4.76-6.59-4.76h-3.55v9.89Z"/><path class="cls-16" d="M200.08,197.18c0-6.17,4-9.72,8.56-9.72s8.55,3.55,8.55,9.72-4,9.66-8.55,9.66S200.08,203.29,200.08,197.18Zm13.88,0c0-4.23-2.15-7.11-5.32-7.11s-5.33,2.88-5.33,7.11,2.15,7.06,5.33,7.06S214,201.41,214,197.18Z"/><path class="cls-16" d="M222,187.92h2.59l.26,3.36h.1c1.29-2.34,3.18-3.82,5.25-3.82a4.4,4.4,0,0,1,2,.38l-.59,2.75a4.91,4.91,0,0,0-1.79-.31c-1.56,0-3.42,1.12-4.67,4.25v11.86H222Z"/><path class="cls-16" d="M235.78,200.68V190.47H233V188.1l2.89-.18.37-5.18h2.61v5.18h5v2.55h-5v10.26c0,2.26.73,3.57,2.86,3.57a6.14,6.14,0,0,0,2.1-.5l.61,2.36a11.24,11.24,0,0,1-3.43.68C237.11,206.84,235.78,204.35,235.78,200.68Z"/><path class="cls-16" d="M246.08,188.1l2.65-.18h6.9v2.55h-9.55Zm2.51-3.1c0-3.75,1.71-6.14,5.41-6.14a8.26,8.26,0,0,1,3.07.64l-.66,2.39a5,5,0,0,0-2.09-.48c-1.75,0-2.61,1.22-2.61,3.6v21.38h-3.12Z"/><path class="cls-16" d="M257.42,197.18c0-6.17,4-9.72,8.56-9.72s8.55,3.55,8.55,9.72-4,9.66-8.55,9.66S257.42,203.29,257.42,197.18Zm13.88,0c0-4.23-2.15-7.11-5.32-7.11s-5.33,2.88-5.33,7.11,2.15,7.06,5.33,7.06S271.3,201.41,271.3,197.18Z"/><path class="cls-16" d="M279.23,202.68V179.32h3.13v23.59c0,1,.41,1.33.87,1.33a2.88,2.88,0,0,0,.68-.07l.43,2.38a5.05,5.05,0,0,1-1.8.29C280.2,206.84,279.23,205.35,279.23,202.68Z"/><path class="cls-16" d="M288.35,182.1a2.17,2.17,0,0,1,4.32,0,2.16,2.16,0,0,1-4.32,0Zm.57,5.82h3.13v18.47h-3.13Z"/><path class="cls-16" d="M296.9,197.18c0-6.17,4-9.72,8.56-9.72S314,191,314,197.18s-4,9.66-8.55,9.66S296.9,203.29,296.9,197.18Zm13.88,0c0-4.23-2.15-7.11-5.32-7.11s-5.33,2.88-5.33,7.11,2.15,7.06,5.33,7.06S310.78,201.41,310.78,197.18Z"/></g></g></svg>