<svg xmlns="http://www.w3.org/2000/svg" viewBox="0 0 491.74 491.74"><defs><style>.cls-1{fill:#171420;}.cls-2,.cls-9{fill:#55bbad;}.cls-11,.cls-12,.cls-13,.cls-14,.cls-15,.cls-2,.cls-3,.cls-5,.cls-6,.cls-7,.cls-9{stroke:#1d1d1b;stroke-miterlimit:10;}.cls-2,.cls-3,.cls-7{stroke-width:2px;}.cls-3{fill:#f7f7f1;}.cls-4{fill:#15937e;}.cls-5{fill:#e30613;stroke-width:4px;}.cls-6{fill:#3b485e;}.cls-7{fill:none;}.cls-10,.cls-11,.cls-12,.cls-16,.cls-8{fill:#1d1d1b;}.cls-8{opacity:0.2;}.cls-10{opacity:0.1;}.cls-11,.cls-13,.cls-14,.cls-15{stroke-width:0.5px;}.cls-12{stroke-width:1.5px;}.cls-13{fill:#009640;}.cls-14{fill:#f59915;}.cls-15{fill:#e73923;}</style></defs><g id="Layer_2" data-name="Layer 2"><g id="Printer"><rect class="cls-1" width="491.74" height="491.74"/><rect class="cls-2" x="138.01" y="127.2" width="219" height="141" rx="13.08"/><rect class="cls-3" x="149.47" y="134.58" width="196.08" height="117.63" rx="6.03"/><path class="cls-2" d="M273.5,298.64h-52a.25.25,0,0,1-.25-.25l3-29.77c0-.14-.14-.14,0-.14l46,.14c.15,0,0-.14,0,0l3.46,29.77A.26.26,0,0,1,273.5,298.64Z"/><rect class="cls-2" x="201.03" y="299.06" width="92.97" height="6.79" rx="2.53"/><polygon class="cls-4" points="270.07 274.95 224.68 274.95 225.24 269.48 269.39 269.62 270.07 274.95"/><line class="cls-5" x1="20.22" y1="305.85" x2="474.81" y2="305.85"/><circle class="cls-6" cx="247.37" cy="282.53" r="5.05"/><rect class="cls-2" x="85.73" y="277.02" width="21.7" height="26.81" rx="4.85"/><path class="cls-7" d="M88.14,277.68S69.67,286.4,85.73,299"/><path class="cls-8" d="M89.83,276.34s-4.4-2.25-3-5.16,3.63-4.65,3.89-6.59-1.79-3.58-.36-6,5.3-5.67,5.3-5.67,5.07,5.52,5,6.7-.51,6.34,2.3,7.82,3.13,2.2,3.58,3.83-3.68,5.47-3.68,5.47"/><path class="cls-9" d="M410,301.38c0,1.15-.94,1.92-2.55,2.43a14.94,14.94,0,0,1-2.3.51,95,95,0,0,1-12.74.53c-9.72,0-17.6-.13-17.6-3.47a2,2,0,0,1,.09-.61h0c.9-3.06,8.4-5.44,17.51-5.44C402.15,295.32,410,298,410,301.38Z"/><path class="cls-10" d="M407.48,303.81l-2.3.51a95,95,0,0,1-12.74.53c-9.72,0-17.6-.13-17.6-3.47a2,2,0,0,1,.09-.61h0l10.56,1.68a7,7,0,0,0,.91.09l9.77.72Z"/><path class="cls-11" d="M389.61,295.36c2.71-.92,3.32-.82,3.32-.82a4.92,4.92,0,0,1,3.17,1.07"/><line class="cls-12" x1="149.34" y1="142.56" x2="345.41" y2="142.56"/><circle class="cls-13" cx="321.53" cy="138.7" r="2.51"/><circle class="cls-14" cx="329.62" cy="138.7" r="2.51"/><circle class="cls-15" cx="337.54" cy="138.7" r="2.51"/><path class="cls-16" d="M181,181.12h7.12c5.59,0,9.36,1.88,9.36,7.34,0,5.25-3.75,7.7-9.21,7.7h-4.1v9.89H181Zm6.87,12.47c4.36,0,6.44-1.58,6.44-5.13s-2.21-4.77-6.59-4.77h-3.55v9.9Z"/><path class="cls-16" d="M199.94,196.84c0-6.16,4-9.71,8.56-9.71s8.56,3.55,8.56,9.71-4,9.67-8.56,9.67S199.94,203,199.94,196.84Zm13.89,0c0-4.23-2.16-7.11-5.33-7.11s-5.33,2.88-5.33,7.11,2.15,7.07,5.33,7.07S213.83,201.08,213.83,196.84Z"/><path class="cls-16" d="M221.91,187.59h2.58l.26,3.36h.11c1.28-2.34,3.17-3.82,5.25-3.82a4.23,4.23,0,0,1,2,.38l-.58,2.74a5.23,5.23,0,0,0-1.8-.3c-1.55,0-3.42,1.12-4.67,4.25v11.85h-3.12Z"/><path class="cls-16" d="M235.64,200.34V190.13h-2.75v-2.36l2.89-.18.38-5.18h2.61v5.18h5v2.54h-5V200.4c0,2.26.72,3.57,2.85,3.57a6.14,6.14,0,0,0,2.11-.5l.6,2.36a11.18,11.18,0,0,1-3.43.68C237,206.51,235.64,204,235.64,200.34Z"/><path class="cls-16" d="M245.94,187.77l2.65-.18h6.9v2.54h-9.55Zm2.51-3.1c0-3.75,1.71-6.14,5.41-6.14a8,8,0,0,1,3.07.64l-.66,2.38a5.13,5.13,0,0,0-2.09-.47c-1.75,0-2.6,1.21-2.6,3.6v21.37h-3.13Z"/><path class="cls-16" d="M257.28,196.84c0-6.16,4-9.71,8.56-9.71s8.56,3.55,8.56,9.71-4,9.67-8.56,9.67S257.28,203,257.28,196.84Zm13.89,0c0-4.23-2.16-7.11-5.33-7.11s-5.33,2.88-5.33,7.11,2.15,7.07,5.33,7.07S271.17,201.08,271.17,196.84Z"/><path class="cls-16" d="M279.1,202.35V179h3.12v23.58c0,1,.42,1.34.87,1.34a2.64,2.64,0,0,0,.69-.08l.42,2.39a5,5,0,0,1-1.8.29C280.06,206.51,279.1,205,279.1,202.35Z"/><path class="cls-16" d="M288.21,181.77a2.16,2.16,0,0,1,4.32,0,2.16,2.16,0,0,1-4.32,0Zm.58,5.82h3.12v18.46h-3.12Z"/><path class="cls-16" d="M296.76,196.84c0-6.16,4-9.71,8.56-9.71s8.56,3.55,8.56,9.71-4,9.67-8.56,9.67S296.76,203,296.76,196.84Zm13.89,0c0-4.23-2.15-7.11-5.33-7.11s-5.33,2.88-5.33,7.11,2.15,7.07,5.33,7.07S310.65,201.08,310.65,196.84Z"/></g></g></svg>