<svg xmlns="http://www.w3.org/2000/svg" viewBox="0 0 491.74 491.74"><defs><style>.cls-1{fill:#232323;}.cls-2,.cls-9{fill:#e41d1e;}.cls-11,.cls-12,.cls-13,.cls-14,.cls-15,.cls-2,.cls-3,.cls-5,.cls-6,.cls-7,.cls-9{stroke:#1d1d1b;stroke-miterlimit:10;}.cls-2,.cls-3,.cls-7{stroke-width:2px;}.cls-3{fill:#f7f7f1;}.cls-4{fill:#b21917;}.cls-5{fill:#e30613;stroke-width:4px;}.cls-6{fill:#3b485e;}.cls-7{fill:none;}.cls-10,.cls-11,.cls-12,.cls-16,.cls-8{fill:#1d1d1b;}.cls-8{opacity:0.2;}.cls-10{opacity:0.1;}.cls-11,.cls-13,.cls-14,.cls-15{stroke-width:0.5px;}.cls-12{stroke-width:1.5px;}.cls-13{fill:#009640;}.cls-14{fill:#f59915;}.cls-15{fill:#e73923;}</style></defs><g id="Layer_2" data-name="Layer 2"><g id="Printer"><rect class="cls-1" width="491.74" height="491.74"/><rect class="cls-2" x="138.01" y="127.2" width="219" height="141" rx="13.08"/><rect class="cls-3" x="149.47" y="134.58" width="196.08" height="117.63" rx="6.03"/><path class="cls-2" d="M273.5,298.64h-52a.25.25,0,0,1-.25-.25l3-29.77c0-.14-.14-.14,0-.14l46,.14c.15,0,0-.14,0,0l3.46,29.77A.26.26,0,0,1,273.5,298.64Z"/><rect class="cls-2" x="201.03" y="299.06" width="92.97" height="6.79" rx="2.53"/><polygon class="cls-4" points="270.07 274.95 224.68 274.95 225.24 269.48 269.39 269.62 270.07 274.95"/><line class="cls-5" x1="20.22" y1="305.85" x2="474.81" y2="305.85"/><circle class="cls-6" cx="247.37" cy="282.53" r="5.05"/><rect class="cls-2" x="85.73" y="277.02" width="21.7" height="26.81" rx="4.85"/><path class="cls-7" d="M88.14,277.68S69.67,286.4,85.73,299"/><path class="cls-8" d="M89.83,276.34s-4.4-2.25-3-5.16,3.63-4.65,3.89-6.59-1.79-3.58-.36-6,5.3-5.67,5.3-5.67,5.07,5.52,5,6.7-.51,6.34,2.3,7.82,3.13,2.2,3.58,3.83-3.68,5.47-3.68,5.47"/><path class="cls-9" d="M410,301.38c0,1.15-.94,1.92-2.55,2.43a14.94,14.94,0,0,1-2.3.51,95,95,0,0,1-12.74.53c-9.72,0-17.6-.13-17.6-3.47a2,2,0,0,1,.09-.61h0c.9-3.06,8.4-5.44,17.51-5.44C402.15,295.32,410,298,410,301.38Z"/><path class="cls-10" d="M407.48,303.81l-2.3.51a95,95,0,0,1-12.74.53c-9.72,0-17.6-.13-17.6-3.47a2,2,0,0,1,.09-.61h0l10.56,1.68a7,7,0,0,0,.91.09l9.77.72Z"/><path class="cls-11" d="M389.61,295.36c2.71-.92,3.32-.82,3.32-.82a4.92,4.92,0,0,1,3.17,1.07"/><line class="cls-12" x1="149.47" y1="142.78" x2="345.55" y2="142.78"/><circle class="cls-13" cx="321.67" cy="138.92" r="2.51"/><circle class="cls-14" cx="329.75" cy="138.92" r="2.51"/><circle class="cls-15" cx="337.67" cy="138.92" r="2.51"/><path class="cls-16" d="M181.14,181.34h7.13c5.58,0,9.35,1.87,9.35,7.34,0,5.25-3.75,7.7-9.2,7.7h-4.1v9.89h-3.18ZM188,193.81c4.36,0,6.44-1.58,6.44-5.13s-2.21-4.77-6.59-4.77h-3.55v9.9Z"/><path class="cls-16" d="M200.08,197.06c0-6.16,4-9.71,8.56-9.71s8.55,3.55,8.55,9.71-4,9.67-8.55,9.67S200.08,203.18,200.08,197.06Zm13.88,0c0-4.23-2.15-7.11-5.32-7.11s-5.33,2.88-5.33,7.11,2.15,7.07,5.33,7.07S214,201.29,214,197.06Z"/><path class="cls-16" d="M222,187.8h2.59l.26,3.37h.1c1.29-2.35,3.18-3.82,5.25-3.82a4.27,4.27,0,0,1,2,.38l-.59,2.74a5.13,5.13,0,0,0-1.79-.31c-1.56,0-3.42,1.13-4.67,4.25v11.86H222Z"/><path class="cls-16" d="M235.78,200.56V190.35H233V188l2.89-.18.37-5.18h2.61v5.18h5v2.55h-5v10.27c0,2.25.73,3.56,2.86,3.56a6.37,6.37,0,0,0,2.1-.49l.61,2.35a11,11,0,0,1-3.43.69C237.11,206.73,235.78,204.24,235.78,200.56Z"/><path class="cls-16" d="M246.08,188l2.65-.18h6.9v2.55h-9.55Zm2.51-3.09c0-3.76,1.71-6.14,5.41-6.14a8.26,8.26,0,0,1,3.07.63l-.66,2.39a5,5,0,0,0-2.09-.48c-1.75,0-2.61,1.22-2.61,3.61v21.37h-3.12Z"/><path class="cls-16" d="M257.42,197.06c0-6.16,4-9.71,8.56-9.71s8.55,3.55,8.55,9.71-4,9.67-8.55,9.67S257.42,203.18,257.42,197.06Zm13.88,0c0-4.23-2.15-7.11-5.32-7.11s-5.33,2.88-5.33,7.11,2.15,7.07,5.33,7.07S271.3,201.29,271.3,197.06Z"/><path class="cls-16" d="M279.23,202.56V179.2h3.13v23.59c0,1,.41,1.34.87,1.34a2.53,2.53,0,0,0,.68-.08l.43,2.39a5.05,5.05,0,0,1-1.8.29C280.2,206.73,279.23,205.23,279.23,202.56Z"/><path class="cls-16" d="M288.35,182a2.16,2.16,0,0,1,4.32,0,2.16,2.16,0,0,1-4.32,0Zm.57,5.81h3.13v18.47h-3.13Z"/><path class="cls-16" d="M296.9,197.06c0-6.16,4-9.71,8.56-9.71s8.55,3.55,8.55,9.71-4,9.67-8.55,9.67S296.9,203.18,296.9,197.06Zm13.88,0c0-4.23-2.15-7.11-5.32-7.11s-5.33,2.88-5.33,7.11,2.15,7.07,5.33,7.07S310.78,201.29,310.78,197.06Z"/></g></g></svg>